<svg id="Capa_1" data-name="Capa 1" xmlns="http://www.w3.org/2000/svg" xmlns:xlink="http://www.w3.org/1999/xlink" viewBox="0 0 327.83 123.28"><defs><style>.cls-1{fill:none;}.cls-2{clip-path:url(#clip-path);}.cls-3{fill:url(#Degradado_sin_nombre);}.cls-4{clip-path:url(#clip-path-2);}.cls-5{fill:url(#Degradado_sin_nombre_2);}.cls-6{clip-path:url(#clip-path-3);}.cls-7{fill:url(#Degradado_sin_nombre_3);}.cls-8{fill:#457341;}.cls-9{fill:#538d4d;}.cls-10{fill:#fff;}.cls-11{fill:#717273;}</style><clipPath id="clip-path"><polygon class="cls-1" points="11.02 30.33 6.78 110.14 76.09 121.25 79.93 30.33 11.02 30.33"/></clipPath><linearGradient id="Degradado_sin_nombre" x1="-837.47" y1="467.47" x2="-836.47" y2="467.47" gradientTransform="translate(-42463.9 -76029.06) rotate(-90) scale(90.93)" gradientUnits="userSpaceOnUse"><stop offset="0" stop-color="#4c63a7"/><stop offset="1" stop-color="#80c4f0"/></linearGradient><clipPath id="clip-path-2"><polygon class="cls-1" points="76.09 119.83 93.06 107.51 77.25 92.23 76.09 119.83"/></clipPath><linearGradient id="Degradado_sin_nombre_2" x1="-862.89" y1="480.33" x2="-861.89" y2="480.33" gradientTransform="translate(-11798.8 -21232.93) rotate(-90) scale(24.74)" gradientUnits="userSpaceOnUse"><stop offset="0" stop-color="#2b3968"/><stop offset="1" stop-color="#35576a"/></linearGradient><clipPath id="clip-path-3"><polygon class="cls-1" points="79.88 30.14 77.25 92.23 93.06 107.51 89.06 30.14 79.88 30.14"/></clipPath><linearGradient id="Degradado_sin_nombre_3" x1="-829.7" y1="474.85" x2="-828.7" y2="474.85" gradientTransform="translate(47163.5 -26889.4) scale(56.77)" gradientUnits="userSpaceOnUse"><stop offset="0" stop-color="#3e528d"/><stop offset="1" stop-color="#5887a3"/></linearGradient></defs><title>tms_logovw</title><g class="cls-2"><rect class="cls-3" x="6.78" y="30.33" width="73.15" height="90.93"/></g><g class="cls-4"><rect class="cls-5" x="71.21" y="89.97" width="26.74" height="32.12" transform="translate(-35.81 43.57) rotate(-24)"/></g><g class="cls-6"><rect class="cls-7" x="50.44" y="37.34" width="69.51" height="61.92" transform="translate(-21.79 90.16) rotate(-50.27)"/></g><path class="cls-8" d="M44.06,28.91v-1c0-12.69,4.23-22.63,9.62-22.63,2.65,0,5.45,2.27,7.68,6.23a34,34,0,0,1,3.89,16.4v1h1.83v-1c0-13.51-6.53-24.46-13.4-24.46s-11.46,11-11.46,24.46v1Z"/><path class="cls-9" d="M35.32,28.91v-1c0-12.69,4.23-22.63,9.62-22.63,2.66,0,5.45,2.27,7.69,6.23a34,34,0,0,1,3.89,16.4v1h1.84v-1C58.36,14.4,51.82,3.45,45,3.45S33.5,14.45,33.5,27.91v1Z"/><path class="cls-10" d="M48.2,53.37a3.09,3.09,0,0,0,2.57,3,2.12,2.12,0,0,0,2.42-1.77,2.16,2.16,0,0,0,0-.44,3.11,3.11,0,0,0-2.44-3,2.11,2.11,0,0,0-2.52,1.62,2.09,2.09,0,0,0,0,.56"/><path class="cls-10" d="M51,47.19a22.26,22.26,0,0,1,17,21.5A22.53,22.53,0,0,1,51,90.36c-13.19,3.16-27-6-27-21.45A21.92,21.92,0,0,1,45.52,46.6a21.51,21.51,0,0,1,5.48.59M19.64,68.94c0,18,16.41,28.18,31.48,24.12A25.58,25.58,0,0,0,69.79,68.69,25.27,25.27,0,0,0,51.12,44.52c-15.07-3.91-31.48,6.42-31.48,24.42"/><polygon class="cls-10" points="57.97 57.83 57.95 61.21 52.92 60.88 52.92 68.58 50.72 71.12 48.82 68.6 48.72 60.54 42.5 60.02 42.5 56.05 57.97 57.83"/><polygon class="cls-10" points="63.56 81.62 60.24 82.34 53.94 73.56 50.83 76.97 47.58 73.83 38.51 85.81 33.36 86.55 47.58 69.01 50.92 72.62 54.04 69.17 63.56 81.62"/><path class="cls-10" d="M194.92,80l2.09-.1,3.32-.16v.45a1.66,1.66,0,0,1-.21.6,1.73,1.73,0,0,1-.49.58.66.66,0,0,0-.19.46v.28a1.61,1.61,0,0,1,0,.31.81.81,0,0,1-.21.55,31,31,0,0,0-3.68.27c-1.11.13-1.9.25-2.34.34-.19.36-.54,1-1.05,2s-1.2,2.32-2,4S188.42,93,187.46,95s-2.06,4.21-3.31,6.82a1.14,1.14,0,0,1-.32.07.89.89,0,0,1-.7-.35,4.47,4.47,0,0,1-.55-.88,6.37,6.37,0,0,0-.35-.63c-.1-.16-.41-.25-.93-.25s-.82-.14-.89-.41c.59-1.37,1.16-2.59,1.7-3.67s1.14-2.23,1.82-3.46,1.38-2.48,2.12-3.76,1.63-2.89,2.68-4.84c-.14,0-1.72.14-4.75.43-.36,0-.53-.06-.53-.19a1.91,1.91,0,0,1,.29-.59,1.85,1.85,0,0,0,.3-.85l-.27-.51a1.33,1.33,0,0,1-.21-.54,1,1,0,0,1,.31-.66,28.88,28.88,0,0,1,3.59-.46c1.16-.06,2.25-.17,3.26-.32.12-.19.25-.44.42-.74l.9-1.6.9-1.56c.36-.55.75-1.21,1.18-2s.75-1.34.95-1.72a3.68,3.68,0,0,1,1-.29c.41-.07.66-.11.76-.14a3.62,3.62,0,0,1,1.13.19,1.45,1.45,0,0,1,.79.52q-.41.72-1.11,2.07l-1.43,2.79c-.49,1-.93,1.82-1.32,2.56"/><path class="cls-10" d="M195.07,100.66a5.34,5.34,0,0,1-2.94-5.2,11.08,11.08,0,0,1,.74-3.82,17.29,17.29,0,0,1,2.08-4,19.59,19.59,0,0,1,3.16-3.58,17.47,17.47,0,0,1,4-2.7,5.38,5.38,0,0,1,2.39-.59,4.09,4.09,0,0,1,2.35.71,5.54,5.54,0,0,1,1.74,1.83,5.66,5.66,0,0,1,.8,2.21,15,15,0,0,1-1,4.9,24.33,24.33,0,0,1-2.57,5.31,15.94,15.94,0,0,1-3.69,4.12,6.78,6.78,0,0,1-4.21,1.61,5.47,5.47,0,0,1-2.89-.82M204.73,85a1.32,1.32,0,0,0-.62-.15,4.59,4.59,0,0,0-2.91,1.63,22.16,22.16,0,0,0-2.69,3.11A17.35,17.35,0,0,0,196.78,93a8.78,8.78,0,0,0-.68,3.07c0,.82.23,1.34.7,1.56a4.78,4.78,0,0,0,3-1.13,15.45,15.45,0,0,0,3-3.5,14.12,14.12,0,0,0,1.1-2.2,19.15,19.15,0,0,0,.87-2.55,8.19,8.19,0,0,0,.32-2.08c0-.61-.11-1-.35-1.14"/><path class="cls-10" d="M217.37,85.11a21.12,21.12,0,0,1,3.36-2.43,19.46,19.46,0,0,1,3.44-1.81,1.14,1.14,0,0,1,.55.39,2.18,2.18,0,0,1,.25.56c.05.21.12.48.21.8a2.18,2.18,0,0,0,.37.49,4,4,0,0,1,.4.52.79.79,0,0,1,.13.39.57.57,0,0,1-.08.34c-2.19,1-3.86,1.8-5,2.38a22,22,0,0,0-3.11,1.91,11.28,11.28,0,0,0-2.28,2.19,95.16,95.16,0,0,0-4.65,10.3,2,2,0,0,1-1.19-.51,3.15,3.15,0,0,1-.59-.72,1.46,1.46,0,0,0-.68-.34,4.44,4.44,0,0,1-.61-.22c-.08,0-.12-.16-.12-.35.18-.64.51-1.71,1-3.18s1.13-3.19,1.94-5.16q1-2.28,2.41-5.39c1-2.07,1.47-3.11,1.51-3.11a1.06,1.06,0,0,1,.59-.21h1.4a3.84,3.84,0,0,0,.77-.42,2,2,0,0,1,1-.4,1.27,1.27,0,0,1,.63.17c-.42.84-1,2.09-1.67,3.77"/><path class="cls-10" d="M222.62,99.07a5,5,0,0,1-.67-2.71A12.37,12.37,0,0,1,223,91.65a17.75,17.75,0,0,1,3-4.78,15.69,15.69,0,0,1,4.63-3.67,12.34,12.34,0,0,1,5.89-1.44,4.05,4.05,0,0,1,2.89,1.35,4.29,4.29,0,0,1,1,2.89,5,5,0,0,1-.7,2.53A9.22,9.22,0,0,1,236,91.71a22,22,0,0,1-4.46,1.85,21.71,21.71,0,0,1-5.11,1,7.91,7.91,0,0,0-.34,1.59,1.56,1.56,0,0,0,1,1.44,3.76,3.76,0,0,0,1.33.19,9.23,9.23,0,0,0,4.2-1.14A7.76,7.76,0,0,0,236,93.43c.12.09.17.49.17,1.21a2.19,2.19,0,0,0,.47.49c.29.25.42.42.42.52a6,6,0,0,1-2,2.94,11.73,11.73,0,0,1-3.64,2.1,11.5,11.5,0,0,1-4.06.79c-2.4,0-4-.8-4.75-2.41m14-13a1.74,1.74,0,0,0-1.45-.5,5.29,5.29,0,0,0-1.62.31,11.34,11.34,0,0,0-6,4.88c.42-.08,1.26-.28,2.54-.6s2.19-.57,2.78-.75a12.63,12.63,0,0,0,2.91-1.47c.71-.51,1.06-1,1.06-1.42a1,1,0,0,0-.19-.47"/><path class="cls-10" d="M160.06,78a6.32,6.32,0,0,1,1.9-4.12,18,18,0,0,1,6-4,39,39,0,0,1,10.27-2.77c1.1-.14,1.78-.22,2.05-.22a4.64,4.64,0,0,1,3.1,1,6.56,6.56,0,0,1,1.84,3.28,7.83,7.83,0,0,1-3.05,3.12,11.34,11.34,0,0,1-5.17,1.5,4.24,4.24,0,0,0-.63-.77,1.4,1.4,0,0,1-.49-.88c0-.41.37-.9,1.12-1.47-1,.22-2.11.48-3.29.77a33,33,0,0,0-3.39,1A10,10,0,0,0,167.47,76a3.33,3.33,0,0,0-1.35,2.26c.2.46,1,.85,2.34,1.15s3,.67,4.85,1.1a12.4,12.4,0,0,1,4,1.45q3.27,2.25,3.27,5.09c0,1.53-.86,3.59-2.58,6.16a15.33,15.33,0,0,1-4.63,4,33.42,33.42,0,0,1-7.25,3.37A22.27,22.27,0,0,1,159,102a8.73,8.73,0,0,1-4-.78c-2-1-2.94-2.37-2.94-4.16a6.35,6.35,0,0,1,1-3.3,10.45,10.45,0,0,1,2.85-3A11,11,0,0,1,159.76,89a2.78,2.78,0,0,1,.85.71,3.56,3.56,0,0,1,.41,1.1,7.81,7.81,0,0,0-2.5,1.83,5.5,5.5,0,0,0-1.36,2.71q.36.6,1.71.6a24.34,24.34,0,0,0,7.53-1.72A19.2,19.2,0,0,0,170,92.74a8.51,8.51,0,0,0,2.69-2.27,6.2,6.2,0,0,0,1.3-3.29c-.08-.48-.8-.91-2.18-1.29s-3.08-.88-5.09-1.5A14.28,14.28,0,0,1,161.93,82a5,5,0,0,1-1.87-4"/><polygon class="cls-10" points="113.8 42.13 113.8 64.5 106.25 64.5 106.25 42.13 100.32 42.13 100.32 35.47 119.69 35.47 119.69 42.13 113.8 42.13"/><path class="cls-10" d="M125.69,56c0,2.93,1.81,4.36,4,4.36a4.35,4.35,0,0,0,3.77-2.24l5.28,2.12c-1.66,3.08-4,4.93-9.17,4.93-7.24,0-10.63-4.31-10.63-10.32s3.74-10.7,10.36-10.7c6.43,0,10.44,4.27,10.44,11.55V56Zm3.58-7.62A3.62,3.62,0,0,0,125.69,52v.11H133c-.23-2.31-1.66-3.77-3.74-3.77"/><path class="cls-10" d="M152.14,65.12c-6.47,0-10.63-4-10.63-10.52,0-5.38,3.39-10.5,10.71-10.5a9.81,9.81,0,0,1,5,1.23v6.58a5.26,5.26,0,0,0-3.89-1.73,4.16,4.16,0,0,0-4.5,3.81,3.75,3.75,0,0,0,0,.58c0,2.77,1.5,4.47,4.66,4.47a5.73,5.73,0,0,0,3.74-1.74v6.43a9.21,9.21,0,0,1-5.09,1.39"/><path class="cls-10" d="M174.05,64.5V54.22c0-3.12-.65-4.54-3-4.54-2.66,0-3.78,2.35-3.78,6.81v8h-7V44.71h7V48c1.74-2.81,3.47-3.92,6.7-3.92,4.66,0,7.08,2.19,7.08,9.12V64.5Z"/><path class="cls-10" d="M195.3,65.12c-6.9,0-11.4-4.66-11.4-10.52s4.89-10.5,11.4-10.5,11.39,4.23,11.39,10.5c0,5.9-4.66,10.52-11.39,10.52m0-14.94c-2.89,0-4.09,2.46-4.09,4.42,0,2.66,1.55,4.44,4.09,4.44,2.19,0,4.08-1.51,4.08-4.44a4.18,4.18,0,0,0-3.95-4.41h-.13"/><polygon class="cls-10" points="239.77 64.5 237.38 46.75 232.22 64.5 227.02 64.5 221.87 46.75 219.44 64.5 211.97 64.5 216.4 35.47 224.33 35.47 229.64 53.72 234.92 35.47 242.85 35.47 247.27 64.5 239.77 64.5"/><path class="cls-10" d="M255.94,56c0,2.93,1.81,4.36,4,4.36a4.36,4.36,0,0,0,3.78-2.24L269,60.19c-1.65,3.08-4,4.93-9.16,4.93-7.24,0-10.63-4.31-10.63-10.32s3.73-10.7,10.36-10.7C266,44.1,270,48.37,270,55.65V56Zm3.58-7.62A3.62,3.62,0,0,0,255.94,52v.11h7.31c-.23-2.31-1.65-3.77-3.73-3.77"/><path class="cls-10" d="M283,74.9c-6.36,0-10.05-3.58-10.05-7.66h7.24c0,1.19,1.42,2,3.35,2,2.5,0,3.81-1.27,3.81-5.28V61.19c-1.23,2.43-3,3.31-6.7,3.31-5.2,0-8.89-3.73-8.89-10.16,0-6.66,3.65-10.25,9.12-10.25a7.14,7.14,0,0,1,6.47,3.32v-2.7h6.89v20.6c0,6-3.62,9.59-11.24,9.59m.3-25.22c-2.31,0-4.23,1.35-4.23,4.66,0,3,1.62,4.58,4.23,4.58,2.43,0,4.05-1.66,4.05-4.58,0-3.54-1.93-4.66-4.05-4.66"/><path class="cls-10" d="M313,64.5V61.81c-1.34,2.23-3.27,3.31-6.7,3.31-5.19,0-8.89-4.05-8.89-10.47,0-6.67,3.66-10.56,9.12-10.56A7.14,7.14,0,0,1,313,47.41v-2.7h6.89V64.5Zm-4-14.82c-2.32,0-4.24,1.65-4.24,5,0,3,1.62,4.89,4.24,4.89,2.42,0,4-2,4-4.89,0-3.55-1.92-5-4-5"/><path class="cls-10" d="M287.16,102.72c.43,0,.81,0,.65.08.88-.11.9,0,1-.19.57-.11,1.18,0,.54.09l1.63-.15h-1c.27-.16,1.57,0,1.88-.18l-1.78.06h.09a8.9,8.9,0,0,1-1.46,0s0-.06.32-.08c-2.14,0-.57.28-2.35.38a3.38,3.38,0,0,1,.45,0"/><path class="cls-10" d="M285.32,102.4l-.74.21h-1.26c0,.07-.92.14-.3.19h.55c-.13.14-1.66.11-1.29.25a10.27,10.27,0,0,0,1.75-.17h2c.27,0,.31-.11.65-.14h-.23l-.05-.21a6.32,6.32,0,0,1-.87,0l1.46-.29a19,19,0,0,0-2.5-.1c.72.16-.56.11.83.22"/><path class="cls-10" d="M177.09,108.5a.88.88,0,0,0-.45.11l3.51-.23c-.11,0-1.13,0-.46-.13a4.35,4.35,0,0,0-1.34.15l.25-.1c-.81.16-1.37,0-.85-.11h-.07l-2.21.57c.83,0,.62-.18,1.62-.26"/><path class="cls-11" d="M105.24,115.19c.45-.09.5-.12.44-.13a1.83,1.83,0,0,0-.44.13"/><path class="cls-10" d="M175,108.9l-.7.17a5.49,5.49,0,0,0,.7-.17"/><path class="cls-10" d="M179.69,106.57h0l-.32.09h0l.32-.07"/><path class="cls-10" d="M189.16,105.26l-1.56.21c.21-.07-.55,0-.22-.09-.12,0-.67.07-.52.09h.32a6.38,6.38,0,0,1-1.67.47,4.44,4.44,0,0,0,1.66-.17h.41l1.29-.32Z"/><path class="cls-10" d="M126.8,111.38l-.06.06c.08,0,.4-.1.06-.06"/><path class="cls-10" d="M175.21,108.77a.85.85,0,0,1-.25.13l.51-.14h-.26"/><path class="cls-10" d="M176.37,108.3l1.31-.11.48-.12-1.79.23"/><path class="cls-10" d="M161.17,110.45c-2.72.24.65-.25-.6-.2-.76.08-1,.19-1.48.26,2.15-.25-.27.34,1.9.13a6.88,6.88,0,0,1-2.3.31c-.84-.1.72-.17.9-.36a2.88,2.88,0,0,0-1.08.24,21.27,21.27,0,0,1-3.65.25,6.86,6.86,0,0,0-1.48.32c-.1.19,1.48,0,1.86.1h.67c-.81,0,.1-.19.54-.24a3.1,3.1,0,0,1,.86,0l-.48.08c.62,0,1.35-.24,2-.19a1.56,1.56,0,0,0-.24.11c.72-.18,1.42-.23,2.49-.4l-.61.23a18.23,18.23,0,0,1,4.17-.36c-.15,0-.42,0-.26-.06.79-.11,1.4,0,1,.09.76-.2,3-.07,4-.34l4.81-1.24a5.62,5.62,0,0,1-.57.09c-.46-.13-.69-.09.07-.29a6.78,6.78,0,0,1-1.6.32c.44-.11.55-.3-.55-.24-2.74.34-4.53.9-7.07,1.32a22.81,22.81,0,0,0-3.09.12,8.1,8.1,0,0,1,1.83-.34l-1.89.13Z"/><path class="cls-10" d="M174.54,108.53l.45-.11-.35.06h-.1"/><path class="cls-10" d="M175.11,108.71l-.09.06h.19l-.1-.06"/><path class="cls-10" d="M150.69,110.16h-.26a1.13,1.13,0,0,0,.26,0"/><path class="cls-10" d="M158.12,110.48c.95-.09.1-.19,1.44-.3h-.39c1-.15,2.64-.24,3.78-.33-.12.08.7,0,.57.16a9.7,9.7,0,0,0,1.94-.32c.49,0,1.21-.15,1.83-.14-.26,0,.86-.29-.63-.11h.16a14.38,14.38,0,0,0-2.17.22c-.5,0,.8-.17.33-.16-1,.14-3.25.17-3.16.41a3.32,3.32,0,0,1-1.09,0c-1.17.36-4.44.22-4.4.57a11.13,11.13,0,0,0,1.78-.22Z"/><path class="cls-10" d="M185,108.89l-.38.25c-2.25.18-3.07.16-5,.31-.15,0,.09-.06.21-.08-1.38.12-3.46.21-4.46.38-.44,0-1.6,0-1.17-.06a5.56,5.56,0,0,1-.7.08c-.07-.08.55-.06.56-.13h-.32c.33-.1-.36-.26,1.18-.35.6.15-1.07.09-.7.28.51,0,.44-.11.48-.14.65,0,.64,0,.61.06a9.7,9.7,0,0,0,1.4-.16c1.26-.1-.06.16.76.1l.47-.24h1.37c2-.21-.31-.35,2-.62-.29.13.63.26,1.69.24-.64,0-1.79.25-2.61.25,1.16.08-1.58.12-1,.27a11.34,11.34,0,0,1,2.25-.2h-.24c.78,0,1.36-.28,2.45-.25.54,0,.44,0,.35.08a3.53,3.53,0,0,1,.86-.08m-1.17.11h-.72a4.33,4.33,0,0,0,.72,0"/><path class="cls-10" d="M220.52,103.81l.61-.07a4.22,4.22,0,0,0-.61.07"/><path class="cls-10" d="M239.36,103.54h.34a1,1,0,0,0-.34,0"/><path class="cls-10" d="M193.17,105.46l-.57.06.57-.06"/><path class="cls-10" d="M247.55,103.6c.15,0,.5.05.34.09.28-.06.26-.16-.34-.09"/><path class="cls-10" d="M276.12,104.62l.31-.08c-.21,0-.39.07-.31.08"/><path class="cls-10" d="M276.43,104.54l.3-.05Z"/><path class="cls-10" d="M281.08,102.88c.09-.06,2.23-.22.42-.2.07-.16,1.16-.1,1.64-.16-.35,0,.17-.1.07-.15-.31,0-.61.06-.92.07s.41-.13.88-.11c-.58-.07.73-.15-.09-.19a26.71,26.71,0,0,0-4.19.45c1-.06,2.1-.14,2.92-.1l-.34.15a16,16,0,0,0-2.4,0h2c1,.09.32.13-.43.17a1.34,1.34,0,0,1,.4,0"/><path class="cls-10" d="M193.42,108.2l-.17.06c.15,0,.19-.05.17-.06"/><path class="cls-10" d="M197.75,108l-.21.06a.83.83,0,0,0,.21-.06"/><path class="cls-10" d="M227.42,105.47h-.15a15.86,15.86,0,0,0,2.38-.24c-.27,0-1.64,0-1.41-.11a14.76,14.76,0,0,1-1.64,0c.89,0,.1.12-.5.19s.1-.12-.37-.13l-1.26.07h1.1l-.33.15h.11c1.86-.14.17.19,2.07,0"/><path class="cls-10" d="M227.27,105.52H227a1.41,1.41,0,0,0,.29,0"/><path class="cls-10" d="M255.63,104.08h-.43a3.09,3.09,0,0,0,.43,0"/><path class="cls-10" d="M228.57,105.11a1.91,1.91,0,0,0-.33.06,1.91,1.91,0,0,0,.33-.06"/><path class="cls-10" d="M255.71,104.33a1.23,1.23,0,0,1,.42.1,8.53,8.53,0,0,0,.85-.1,9,9,0,0,1-1.27,0"/><path class="cls-10" d="M178.45,108h-1.19a.17.17,0,0,0,.1,0h-.24c-.58.15-2.06.32-2.48.42a13.48,13.48,0,0,1-1.68.18c.4,0,.93-.09.77-.14a9.66,9.66,0,0,0-2.63.09l.83-.06-1.84.36c-.66,0,.92-.18,1.17-.28-1.44.21-2.66,0-3.32.23-.1-.12-.27-.31-1.22-.24.7.1-.56.13,0,.24-.32.09-1.06,0-1.1.13l.08-.06a7.12,7.12,0,0,0-2.82.42c-1.93.2-2.83.19-4.4.33a1.77,1.77,0,0,0-1.15-.21c-.29.13-1.71.29-1.84.44a7.15,7.15,0,0,0,1.59-.27c.57.1.06.14.84.17-.63,0-2.81.29-3.5.2h.24a9.08,9.08,0,0,0-3.12,0l-.86.16h.07a15,15,0,0,0-2.59.17h.16a17,17,0,0,0-2.45.33c-.42-.09.09-.13.34-.23a24.81,24.81,0,0,0-4.2.66h-1c.6-.1,1.32-.29,1.13-.34a10.35,10.35,0,0,1-1.23.16,4.67,4.67,0,0,1,.81-.31c-1.63,0-.34.3-1.49.16a1.08,1.08,0,0,0-.85.28h-.93a8.46,8.46,0,0,1-2,.34c-.09.06.61.06.89,0a4.44,4.44,0,0,1-1.35.27c-.21-.23-3.34.35-2.76,0-2.29.29-5.51.66-7,.93-.5,0-1.52.1-.92-.08-1.84.2-2.77.54-4.6.69-.16,0,.82-.1.75-.17-1.18.24-2.19.16-4,.45a.76.76,0,0,0,.43-.14,8.61,8.61,0,0,1-1.22.28c-.27,0,.35-.08.2-.09-1.8.15-3.37.42-4.93.7s-3.12.56-4.89.83c1-.15,1.37-.36,1.37-.43l-1,.15c-.37.13-1.11.24-1.73.4-.08,0-.38,0-.08-.09-2,.15-3,.77-5.39,1.14.92-.29,1.87-.58,2.82-.84h-.74l1.26-.36c-.78,0-1.41.35-1.52.25.15-.07.54-.12.54-.19a7.56,7.56,0,0,0-1.33.31A45.65,45.65,0,0,1,107,114c.24-.06-.2.09-.24.12.63-.11,1-.08,1.8-.25.47-.17-.39,0-.78,0,0-.1.24-.12.67-.2.11.1,2.39-.29,3-.21,2.31-.36-.42-.27,1.85-.52h.7a42.23,42.23,0,0,1,4.48-.73h-.31c-.2.09.14.08.3.09,1.13-.07,2.12-.37,2.82-.31,1.27-.29,3.4-.63,4.86-.87.41.14-1.9.37-2.5.55l1.34-.15a6.51,6.51,0,0,0-1.63.36c1.18-.1,1.54-.3,2.65-.47-.08.06.07.08.58,0l.13-.13a.89.89,0,0,0,.23,0l2-.29a5.6,5.6,0,0,0-1-.06c.19,0-.24.11-.75.17.44-.13-.51,0-.5-.08,1-.11,2.28-.26,3-.37l.23.09c1-.07,2-.23,2.67-.26l-.2.08c1.17-.08,2.32-.27,3.37-.26,1-.23,2.34-.46,3.18-.68.45-.2,3.09-.1,4.25-.4.08,0-.8.18-1.2.27.79,0,1.4-.28,1.66-.15-1.77.1.11.11-.68.22a20.93,20.93,0,0,0,2.09-.26c-1.34.11.45-.25-.89-.07a25.57,25.57,0,0,1,3.71-.45c0,.07.15.08.62.07l.36-.13c.59,0-1.11.21.06.14,1.2-.26,3.65-.22,4.16-.55.93,0-1.75.25-.34.29a20.09,20.09,0,0,0-2.18.32c.79-.11.3.1.81.06l.87-.17H152c1.47-.25,3.83-.37,5.72-.53a35.9,35.9,0,0,1,4.61-.71c-.57.13,1.6,0,.4.22a5.12,5.12,0,0,0,1.78-.22h-.93a9.23,9.23,0,0,1,1.89-.17h-.17c.95,0,.45-.11,1.12-.19a18.74,18.74,0,0,0,2.12,0l.89-.22c-.49.13.86,0,1,.07a11,11,0,0,1,2.15-.32c-.4.08.9,0,.93.12,1.68,0,2.75-.47,4.35-.43-.05,0-.37.12.1.12s1-.09,1.39-.12h0c.19,0,.31,0,.32-.07a18.12,18.12,0,0,1,2.31-.45,5.65,5.65,0,0,0-1.69.08l-.41.14c-.41-.16-1.19.11-1.49.07.77-.27,3.05-.37,4.41-.57a25,25,0,0,0-4.24.09h.7l-.82.06.81.08c-.79,0-1.46.11-2.17.15.83-.06,1.16.08.69.09a7.67,7.67,0,0,0-1.66.18c.39,0,.9,0,.58,0-1.4,0-1.77.07-3.05,0,.17.19-1.58.12-1.76.3h.59l-1.24.21c-1.16-.09,1-.24-.75-.24a15.9,15.9,0,0,0-2.82.4,10.52,10.52,0,0,1,2.43-.38h-.63c.81-.11,1.63-.18,2.45-.21-1.16.21.55,0,1.09.08.09-.13-.66-.06.22-.21-.83.06-1,.07-2,.1,2.29-.1,2-.54,4-.57-.92.11.33.14.44.19a15.92,15.92,0,0,0,1.66-.18l-.33-.15c1.15-.15,1.58.18,2.91-.08.16-.11-1.18,0-1,0a20.46,20.46,0,0,1,4.14,0c.09-.06.07-.17.63-.29-.17.11.25.14-.38.25a10.27,10.27,0,0,0,1.66-.17c-1.14,0,.45-.17.66-.24.59,0-.17.11-.53.16a4.67,4.67,0,0,0,1.3,0,7,7,0,0,1-2.17.43h.59a5.45,5.45,0,0,1-1.07.08c.58,0,.53.14.4.23h0c-.48,0-.84,0-.72.1-.42.17.66,0,1,.1l.72-.07,2.41-.59a12.73,12.73,0,0,1,2.31,0l.2-.14c.91,0,1.77,0,1.2.14h-.48l1.63-.16c-1.64.27-.07.23-.34.46l1.67-.17c-1,0,0-.1.33-.15a10.41,10.41,0,0,0,1.93-.1h0a14,14,0,0,0,2.17-.12,9,9,0,0,1,1.23-.43c-1.16,0-.48-.07-.57-.15h.36c.16,0-.23,0-.26-.08a16.93,16.93,0,0,0-3,.42c.39.06.65-.11,1.07-.08a14.05,14.05,0,0,1-2.42.22l-.34-.08-1,.12a3.53,3.53,0,0,1,1.24-.26,16.9,16.9,0,0,0-1.74.09l-.33.16c.13-.09-1.29,0-.29-.18l1.63-.2-.46-.07,1.39-.11-.33.09c2.22-.22.68.23,2.9-.06a10.81,10.81,0,0,1,2.83-.29c-1,.08-.1.12-.47.23a6.94,6.94,0,0,0,1.87-.22c.27.07.45.14-.45.17-.11.19,1.19-.09,1.28.09,3-.15,2.37-.72,5.89-.66l-.13.09c2.22-.21,3.51-.18,5.57-.34l1.63.11c-.36,0-1.33.24-.87.31a20.75,20.75,0,0,0-2.49-.11c-.08.06.27.08.42.1a13.94,13.94,0,0,0-1.45,0s.77.06.22.11l-.93-.08c-1.23.12-.59.32-2,.34a4.34,4.34,0,0,1,1.37-.36c-.66,0,.88-.11.27-.14-.94.2-1.41.1-2.67.26a2,2,0,0,1,.49-.09h-1.84c.46.07-1.52.17-1.34.3,2,0,1.39-.09,3.63-.12a8.09,8.09,0,0,0-1.82.39H206c-.34.15,0,.17,0,.41,1-.22,1.7-.11,2.9-.27.22-.14-.71-.13-1.31-.07l1.06-.14-.2.07,2.69-.08a3.72,3.72,0,0,0-.94.18h1.06c-.09-.12,0-.21.3-.23a17,17,0,0,1,3.34.12h.2c-.29-.11,1.22-.29,1.75-.44,0,.13.9,0,1.4.08.26-.17-.11-.36-.72-.45-1.16.19-.65.17-1.19.39l-1.87.22.41-.14c-.94,0-1.83.2-1.77,0,.49-.13,1.31-.11,1.8-.24h-.63c1.09-.21.57.12,1.89,0-.49-.11.12,0,.68-.14-.46-.07-2.33.16-1.94-.09a24.85,24.85,0,0,0,3.23-.12h0a10,10,0,0,0,2.31-.28,16.65,16.65,0,0,0,2-.12v.07l.87-.07a10.5,10.5,0,0,1-1.77.09l.09.12a5.36,5.36,0,0,0-2.1.27c1-.15,2.76-.09,3-.34l.61.1h.29c.45.07,0,.24-.88.3-.15,0-.23,0-.18-.07a6.86,6.86,0,0,1-1.75.2l.52-.09a13.37,13.37,0,0,0-2.75.28c1.77,0,3.5-.09,5.16-.16a9.16,9.16,0,0,0,1.29-.74,28.66,28.66,0,0,1,3.59-.14h-.09a7.61,7.61,0,0,0,1.26-.07c.5,0-.33.16,0,.18l1.59-.15a10.24,10.24,0,0,1-2.07.21c.12,0,.36,0,.28-.06a15.31,15.31,0,0,1-2.44.08c-.36,0,.72-.15-.5-.11a1.93,1.93,0,0,0-1.16.18c0,.07,1.29,0,.84.14a13.73,13.73,0,0,1,1.7-.1A10.6,10.6,0,0,1,226,104c-1.24.17-1.05.47-.46.46-.14-.09,2.27-.21.63-.27.73-.15,2.07-.21,3-.32h0l1.2-.08c-.17,0-.53.09-.54.15l1.65-.24c-.93.16.58.06,1,.09.17-.1.82-.21.19-.24s-.4.07-1,.11l.89-.2h.08l.53-.15c1.22,0-.52.33,1,.13l-.21-.17c1.81,0,4.14.06,5.42-.07-.35.11-.5.28,0,.36-.55,0-1.66,0-2.45.09a6.38,6.38,0,0,1,1.84-.25c-.43-.27-2.16.27-2.27,0-2.19,0-1.62.35-3.49.25,0,.13-.52.09-.62.21a28.58,28.58,0,0,0,3.7-.09l-.4.07a12.27,12.27,0,0,0,1.82-.11h-.08c1-.17.66.07,1.28.1.24,0,1.1,0,1-.12l1.13.08-.06-.14a7.5,7.5,0,0,0,1.34,0v-.13h-1.57c.79-.08.22-.14,1.09-.19-1,.17.7,0,.8.17l.64-.1h-.17a9.5,9.5,0,0,0,1.19-.07,7.44,7.44,0,0,0-2,0c.65-.1,1.92-.23,2.24-.24a17.81,17.81,0,0,1,1.79,0c-1.22.09.44.38-2,.37a.58.58,0,0,1,.32,0,5.85,5.85,0,0,0-2,.14c.13.09-.42.13.52.16-.31-.06.78-.25,1.68-.2l-.15.21h1.18c.49.12,1.38-.07,2.28,0,.64-.1,3.12-.12,2-.3a11.85,11.85,0,0,0,2.38-.15h-1.09a10.53,10.53,0,0,0,1.94-.36c.11,0,.34.09.13.16a50.74,50.74,0,0,0,5.23-.27,27.24,27.24,0,0,0,3.13,0c.36,0-.29-.19.85-.16.08,0-1.09.19.17.13.9-.19,2.12,0,3.29-.16.62,0,1.69,0,1.47.13a20,20,0,0,0-2.57.13c.13-.09-.7-.06,0-.14-1.49,0-1,.11-2.29.09-.09.06.69.12,1,.06,0,.18-2.62.18-1.43.34,1.42,0,1.83-.4,3.06-.26-.49.12-1.26.06-1.88.26h1l.73-.15h0c1.79.11,1.65-.22,3.24-.35-.93-.1.21-.3-.49-.36,1.07,0,1.85,0,1.86.13-2,.19-.11.18-1.95.4.31,0-.43.26.67.25s-.37-.13.86-.22c.07,0,.15,0,.11,0,.57-.1.66,0,1.35-.1h-.16c.85.08.92-.14,1.66,0-.3-.12.48-.11.93-.21a18.8,18.8,0,0,0-2.6-.15c-.18.11-.07.16-.67.22h.95l-.55.07h-.91c1.16-.11.62-.2,1.11-.32H272a17,17,0,0,0,3.27.26h-.57c-.88.12.62.11.65.15l.64-.1c-.12,0-.28.06,0,.07.87,0,.82-.19,1.69-.24.07.08-.66.22-.12.25a4.71,4.71,0,0,0,1.94.13,6,6,0,0,1,.73-.08h-.13l.78.07c-.66.16-1.33,0-2,.12v.14a8.74,8.74,0,0,0-1.53.17,13,13,0,0,0,1.82-.09c.13.08-.49.16-.58.17l.13-.08c-1-.08-1.55.17-2.85.18h0c-1,.15-2.08,0-3.1.2l.33-.08-3.4.4v.06h-.63l-1.87.21a4.62,4.62,0,0,0,.65,0c.21-.06,1.46,0,1.28-.18.58.07,1.51-.08,1.93,0-.77-.07.54-.15.67-.23.26.08,1.14,0,1.05.09a2.12,2.12,0,0,0-.71,0c-.81.13,1.48,0,.48.18,1.27-.11,3-.12,4.28-.26h-.74c.59,0,2-.06,2.08,0l-1.5.08c0,.13,1.34,0,1.41,0l1.61-.26H279c.45-.09,1.93,0,3,0a22.21,22.21,0,0,1-2.82.15c-.84.09.52.16-.27.22a3.35,3.35,0,0,0,1,0h.31c-.7.19-2.29.19-3.35.36a.66.66,0,0,0,.2-.06,19.86,19.86,0,0,0-2.44,0,2.89,2.89,0,0,0,.83,0s-.72.08-1,.13c.74,0,.14.09.61.11a11.85,11.85,0,0,1-1.46,0c-.31-.06.25-.1.18-.17a17.42,17.42,0,0,0-1.77,0c1.18,0-.3.18-.71.25h.2a1.71,1.71,0,0,1-.95,0c.49-.06.95,0,.81-.13a5.88,5.88,0,0,0-1,.06l.32-.08-1.58.06a7.39,7.39,0,0,0-.88.36,4.43,4.43,0,0,0-1.26,0h.16a11.15,11.15,0,0,0-2.38.13c-.5-.06,3.51-.58,0-.41-1.34,0-.83.27-1.59.38h0a5.29,5.29,0,0,0-1.12.15,5.57,5.57,0,0,0,1,0c-.17.1-1.22,0-1.67.12.58-.17-1.13,0-.68-.11a12.58,12.58,0,0,0-3,.23,23.78,23.78,0,0,0-2.67,0h.83c.73-.15-1.33,0-.21-.17-.24,0,0,.06.23,0,.43,0,.84-.1.73-.15l-1.05-.08h.36l-1.59-.1c-.05,0,.11,0,.18.07-1.84,0-3.94.15-5.56.18-.29.36-4,.28-5.26.54.35-.11.53-.3.31-.36a10,10,0,0,1,1.54-.18c.11,0,.93.09.4.17,1.82-.1-.25-.14.29-.29-2,.1-3.2.35-4.47.47h0l-1,.11c.78,0,.75.19-.26.16h.12c-.58-.06-1.78.09-2.68.11l-.61.14a1.9,1.9,0,0,1-1.25-.3,23.53,23.53,0,0,0-3.23.39c-.46-.07-2.58,0-1.46-.17-1.28.14-1,.63-3.2.44l.56-.11c-2.09.1-5.07.4-6.05.35.77-.36-2.63-.22-3-.52.1.06-.68.12-.8.17a1.94,1.94,0,0,0-.76,0c.82,0-.56.36,1,.16a12.8,12.8,0,0,1-3.53.54v-.13H217c-.15-.09.56-.11.84-.17-2.55,0,.32-.33-2.28-.18-.25.09-.09,0-.76.12.32,0,.37-.11-.15-.09l-.48.13c-.92-.18,1.5-.22.71-.33,1-.16,2.75-.3,2.41-.45-1.64,0-1.46.39-3.18.39l-.19-.06a4.4,4.4,0,0,0-1,.29,1.72,1.72,0,0,0-.58-.06c-1,.22-1.68.29-2.62.52,2.5-.26,2.15,0,4.73-.23a13.08,13.08,0,0,0-2.32.39v-.13a21,21,0,0,1-2.74.23l.64-.11a30.2,30.2,0,0,0-3.43.19,4.27,4.27,0,0,0,.95-.06c-.8.09-1.6.13-2.4.14l-1.61.3c0-.07-1,0-.53-.15a11.86,11.86,0,0,0-2.38.24c-1.2-.08,1-.11,1.14-.3a29.69,29.69,0,0,0-4.31.34c.34,0,.5,0,.48.06a6.49,6.49,0,0,0-1.08,0l-.25.1c-.62,0-.53-.08,0-.18a11,11,0,0,1-1.9.14c1-.16,2.29-.15,2.81-.24-2.1.2-2.13-.14-4.78.12,0,0,.41-.14-.11-.12-1.18.1-.3.2-.66.32a5.87,5.87,0,0,1,1.87,0l-.24.08h-.78l-.14.15c.06-.16-.87-.23-1.58-.13.73.07.53.08.74.25-1,.22-1.15-.1-2.28.14.08,0,1.07-.15.21-.14a4.93,4.93,0,0,0-1.08.22c.53-.16.39-.25,1-.44a16.31,16.31,0,0,0,1.74-.15l-1-.06c1.07-.08.77-.19.85-.24a17.8,17.8,0,0,0-2.54.31c-.56.12,1.1,0,.22.1-1.1,0-.24.1-1.47.22l.2-.07a5.27,5.27,0,0,0-1.19.1c-.47.07.58.42-1.4.54.1,0,.13-.06.13-.08l1.86-1.2c-2,.12-4.31.21-6.62.29-.56-.18,1.64-.29,1.49-.37H183c-.05.09-2.21.16-1.25.26,1.86-.17,2.71-.12,4.47-.41-.56-.18-2.33.18-3.49.08q.65,0,1.29-.12l-3.47.12-.28.07h1.48a4.5,4.5,0,0,0-2.08.4h.2l-.4.08Zm-71,6.62a.55.55,0,0,0,.15-.08l-.15.08m92.5-8.4-4.36.16c2.56.16,4.36.29.12.53h-.28a18.66,18.66,0,0,0,2.41-.12l1.79-.4.87-.21a1.48,1.48,0,0,0,.36-.1,6.73,6.73,0,0,0-1.1,0Zm1.07.47c.83,0,.64-.07.76-.14l-.87.07c.11,0,.17,0,.11.07m.71-.2a.74.74,0,0,1-.21,0Zm-16.16.83h-.51a4.34,4.34,0,0,0,.51,0m1.69.06.19-.13h-.56a.7.7,0,0,0,.37.11m5.44.06c.34-.16,1.48-.23,1.54-.39s-.17,0-.44,0h-1a.44.44,0,0,1-.19.07c.33,0,.56,0,.43.13-.88-.16-.77.2-1.71.2-.29.12,1,0,1.33,0m72-3.44.25.08-.66.1a15.36,15.36,0,0,0-3.18,0,3.78,3.78,0,0,1-1-.2h.66c3-.39,1.56.24,3.95,0m-13.55.17a.43.43,0,0,0,.16,0,53.5,53.5,0,0,1-6.2.57,15.6,15.6,0,0,0,2.16.18l-.53.15-.34-.09-.92.15c.26.07,1,0,1.51.08.05,0,1.65-.23,2.09-.33h-1.28c.35,0,2.05-.07,2.72-.12a2.6,2.6,0,0,0-1.3,0c-.14-.09,1.2-.14.35-.22a25,25,0,0,1,3.35-.08l.13.16c.82,0,.55-.21,1.52-.15-1.19.07.2.17-.74.22.3,0,0,.17,1,.12.78-.24,1,.11,1.74-.11.5,0-.53.15.45.15,1.12-.16,1-.24,1.12-.4-1.06,0-1.18.25-2,.24l1.7-.33a4.57,4.57,0,0,0-.74,0,5.2,5.2,0,0,0,.88-.14l.39-.1a13.35,13.35,0,0,1-2,0l.13-.08a3.48,3.48,0,0,0-1.16.08,12.47,12.47,0,0,1-1.93.08l.33-.08c-1.07,0-1.19.07-2.53.11m-35,1.21c.66.25,1.38.44,4.4.27h-.23c1.52.11,2.95-.35,4.81-.23a10.52,10.52,0,0,0-1.83.41l1-.12c-.26.16.7,0,1.41,0L225,106a7.42,7.42,0,0,0-1.49,0,10.54,10.54,0,0,0-2.38-.08c.1.12,2,0,1.18.23.76-.12.86,0,1.66-.08-.77.12-.19.18-.75.29l1.31-.09s-1.91.16-.83.27a12.2,12.2,0,0,0,2-.19h0c1,0,.43-.2,1.64-.17,0-.07-.22-.11-.66-.08a6.53,6.53,0,0,1-1.16.19c-.34-.09.9,0,.38-.18-.27-.07-2,.16-1.44-.06h1c0-.13.73-.15.7-.26a17.68,17.68,0,0,0,1.78-.09c.25-.09-.2-.23.81-.21a24.28,24.28,0,0,0,4,0l.76-.12c-.07-.07-1.46.07-1,0l1.19-.08h-.09a7.48,7.48,0,0,0,1.16-.12c-.37.11-1.23.11-1,.24a11.22,11.22,0,0,0,1.16,0h-.19a2.41,2.41,0,0,0,1.37-.26c1.13-.22-1.16-.12-1-.27l3.33-.21c-.29.06-.57.12-.46.17a4.58,4.58,0,0,0,1.17,0c-.09-.18,1.43-.18,2.24-.31.38.06.46.07-.37.1a7.13,7.13,0,0,0,1.6,0l.87-.11c-.34,0-.2-.13.52-.2h0a29.15,29.15,0,0,0-3.74.09l.21-.07c-1.37,0-3,.34-3.59.13.05-.09-.28,0-.26-.14l-1,.14.2-.06-1.7.09h0l-1.94.37c0,.06.06.08-.21.13a3.64,3.64,0,0,1-.66,0h0c-.42,0-.7-.07-1.22-.08l1.59-.08c.12-.1,0-.2-.79-.23.31,0,.44-.1,0-.1,0,0-1,.11-.65.17-1.51.1-4-.06-6.23.22,1.64-.18-1.32-.08.5-.19-1.28-.11-1.09.2-2.39.22a3.72,3.72,0,0,0,1-.14c-2.15,0-3.62.39-5.71.45l-.09-.12-1.29.12m-4.11.35-1.22.1h.12l-1.2.15c.74,0,1.23.13.2.24.09-.06-.22-.1.14-.15-.7,0-2.23,0-1.82.13,1.33-.24.32.22,1.36,0-.54.09-1.09.16-1.64.2.55-.13-.14-.22-1-.23-.36,0-1.35.07-1.94.14.22.11-.3.2.68.18a9.93,9.93,0,0,1-1.54.07c.24,0,.68-.07.64-.11-.4-.08-.87,0-1.14-.09h-.46l-.68.14c.91-.1.42,0,.41.1,0-.14-.59,0-.9,0l.69.1c-.33.09-1.17,0-1,.09,1.45,0,2-.07,3.31-.17l-.54-.09c1.47-.14.92.14,2.57.06.69-.13,2.49-.13,2.52-.33a3.92,3.92,0,0,0,1.6,0c.62-.21,2.51-.33,1.94-.38a7.32,7.32,0,0,1-1.62.05l1-.08-.65-.07c.34,0,.3-.07.14-.21m-22.32.06Z"/><path class="cls-10" d="M279.41,103.23c.28,0,1-.06.85-.16,0,.11-1.26.05-.85.16"/><path class="cls-10" d="M280.26,103.31c.05,0,0-.06.33-.08h-.87Z"/><path class="cls-10" d="M281.16,104a5.84,5.84,0,0,1,1.44-.16c.28.25-1.15.1-1.47.35,1.3,0,1.69-.24,2.76-.29a7.83,7.83,0,0,0-2.73.1"/><polygon class="cls-10" points="280.6 104.36 281.31 104.28 281.24 104.27 280.52 104.35 280.6 104.36"/><path class="cls-10" d="M264.91,102.51c-.06-.08-.51,0-.75,0a3.14,3.14,0,0,0,.75,0"/><path class="cls-10" d="M123.33,110.92c-1.82.22-3.64.47-5.46.72l5.46-.72"/><path class="cls-10" d="M246.67,103.65c1.48-.12,2.13-.29,3.63-.37-2-.1-2.6.34-4.27.23Z"/><path class="cls-10" d="M247.17,103c.25.14-1.13.21-.91.32,1-.07.46-.16,1.36-.18Z"/><polygon class="cls-10" points="253.95 105.29 253.51 105.39 253.86 105.34 253.95 105.29"/><polygon class="cls-10" points="240.44 103.35 240.61 103.31 239.86 103.29 240.44 103.35"/><polygon class="cls-10" points="253.39 105.64 254.05 105.65 254.38 105.57 253.39 105.64"/><path class="cls-10" d="M247.49,105l.59-.06c-.12,0-.94,0-.59.06"/><polygon class="cls-10" points="235.92 103.47 235.19 103.56 235.27 103.57 235.99 103.48 235.92 103.47"/><path class="cls-10" d="M242.84,105.59c.42.11-1.18.07-.33.15s.44-.1.33-.15"/><path class="cls-10" d="M234.08,105.14a1.5,1.5,0,0,0-.3,0h.3"/><path class="cls-10" d="M234.08,105.14a5.89,5.89,0,0,0,.84,0,3,3,0,0,0-.84,0"/><path class="cls-10" d="M230.46,105.31h.29c-.29.07-.15,0,.11,0s.28-.06.32-.08l.18-.06-.25.06c-.46,0-.75,0-.65.08"/><path class="cls-10" d="M217,103.9c1.06,0,1.34,0,1.28.09a6.45,6.45,0,0,0,1.45-.23c-1.14.06-1.37,0-2.73.14"/><polygon class="cls-10" points="234.73 106.14 234.07 106.3 234.31 106.27 234.73 106.14"/><path class="cls-10" d="M215.38,103.93a3.75,3.75,0,0,1,.67,0c0-.1-.86,0-.67,0"/><path class="cls-10" d="M219.54,105.52a9.37,9.37,0,0,0,1.06,0c-.4,0-.73-.15-1.06,0"/><path class="cls-10" d="M212.37,104.45c.2,0,.5,0,.37.13.29-.06.66-.24-.37-.13"/><polygon class="cls-10" points="217.61 105.59 217.76 105.62 218.48 105.52 217.61 105.59"/><path class="cls-10" d="M220.25,106.82c.8-.14-1.31-.21.09-.36-1.81,0,.14.15-1.19.19.78,0,1.17.13,1.1.17"/><path class="cls-10" d="M214.91,107l1.2-.23c-.8.15-2.85.24-2.71.4a8.87,8.87,0,0,0,1.78-.17Z"/><path class="cls-10" d="M200.78,104.68l.52-.09h-.66c.19,0-.14.15.14.08"/><path class="cls-10" d="M210,106.33a9.45,9.45,0,0,0,1.06-.08c-.15,0-1.13,0-1.06.08"/><polygon class="cls-10" points="197.09 105.11 197.95 105.04 197 105.1 197.09 105.11"/><polygon class="cls-10" points="193.01 105.07 192.86 105.05 192.15 105.15 192.3 105.17 193.01 105.07"/><path class="cls-10" d="M198.49,108c.59,0,1-.19.89-.21l-1.15.07c.3.11.32,0,1,0Z"/><path class="cls-10" d="M163,107.23a4.88,4.88,0,0,1,1.57-.08c-.17,0-.84.14-.41.15l1-.28c1.32,0-1,.35-1.62.48,1.34-.08,1.72-.25,3.15-.35a5.62,5.62,0,0,1-.92-.05c-.06-.15,1.28-.17,2.22-.24-.61,0-.26-.1.18-.19a.43.43,0,0,0,.16,0h0l-.11-.06a12.16,12.16,0,0,1-1.92,0c.53.2-1.74.18-2.38.3l-.74.08h-.28c-.06,0,0-.06.44-.13a8.54,8.54,0,0,0-1.42.21l-2.69.21h-.33c-3.91.3-7.82.6-11.73,1h1.69c-.89.23,1-.06.73.11a6.11,6.11,0,0,1-1.35.12c-.12.09.39.11.33.21,1.49,0,1.69-.42,3.14-.49,0,.1-.49.21.45.12H152c1.51-.22,1.2.12,2.14-.2v.13c.68-.15,2-.25,2.77-.33h0c2.11-.31,1.19-.12,3.56-.37l-1.09.24a14.43,14.43,0,0,0,1.59-.21s.1.12-.45.18l2.87-.45c.68-.15-.15-.09-.26-.13"/><path class="cls-10" d="M146.31,108.34l.82-.07a3.41,3.41,0,0,0-.82.07"/><path class="cls-10" d="M170.72,106.59c-.5,0,.37-.12.45-.17l-1.79.12s-.16.12-.12.16Z"/><path class="cls-10" d="M168.86,106.48a1.83,1.83,0,0,1-.46.12l1-.06a1.13,1.13,0,0,0-.52-.06"/><polygon class="cls-10" points="169.24 109.17 168.92 109.19 168.44 109.27 169.24 109.17"/><path class="cls-10" d="M164.27,109.29a6.57,6.57,0,0,0,1.33-.1c-.82.06-.47,0-1.33.1"/><polygon class="cls-10" points="165.35 110.03 164.55 110.14 164.63 110.15 165.35 110.03"/><path class="cls-10" d="M140.26,109.38l-.39.05.39-.05"/><path class="cls-10" d="M147.09,108.67c-1.91,0,1.24-.23.63-.37l-1,.15h.09l-1.26.12c.26.06.46,0,.41.15-1.69.11-.54-.06-1.79-.07l-1.88.18h.15a.87.87,0,0,0-.28,0c-2.11.19-4.23.43-6.34.65-1.15.18.65.1-.19.32a18.07,18.07,0,0,0,3.44-.42s-.13.09.14.08l.76-.22h-.74a18.73,18.73,0,0,1,3.74-.35,13.5,13.5,0,0,1-2.69.36c.1,0,.47.09,0,.15,2.33-.25,4.43-.35,6.83-.71"/><path class="cls-10" d="M124.5,111l1.11-.3-1.76.21-.12.14a4.26,4.26,0,0,1,1-.16Z"/><path class="cls-10" d="M126.92,110.41c-.91.15-.84.29-.34.31-.83.15-.46-.11-1,.11a4.74,4.74,0,0,0,1.3-.12Z"/><polygon class="cls-10" points="133.68 109.8 133.43 109.88 134.06 109.84 133.68 109.8"/><path class="cls-10" d="M133.43,109.88l-.63.05a.35.35,0,0,0,.2.1Z"/><path class="cls-10" d="M131.14,110.05l-.92.06Z"/><path class="cls-10" d="M132.8,109.93c-.11-.1-.25-.19-1.15-.07l.19.14Z"/><polygon class="cls-10" points="159.54 110.32 158.83 110.43 158.91 110.44 159.62 110.33 159.54 110.32"/><path class="cls-10" d="M155.39,110.54l-.43.09a3,3,0,0,0,.43-.09"/><path class="cls-10" d="M152.36,111.48c-.85,0,1.16-.23-.41-.15-.15-.09.57-.27,1.32-.28-.06.1-.72.11-.26.17.48-.14.68-.08.49-.21a14.91,14.91,0,0,0,1.46-.38c-1,.14-3.1.15-4.35.44-.68.22-.24.41-.22.65a6.13,6.13,0,0,0,2-.24"/><path class="cls-10" d="M153.71,111.61a3.81,3.81,0,0,0,.75-.07c-.07-.08-.44,0-.75.07"/><path class="cls-10" d="M144.57,110.58c-.07,0-.78.15-.62.19l1.07-.13a1.14,1.14,0,0,1-.45-.06"/><path class="cls-10" d="M145.49,110.58l-.47.06.47-.06"/><path class="cls-10" d="M128.53,110.25c0-.06-.47,0-.71.08a5.71,5.71,0,0,0,.71-.08"/><path class="cls-11" d="M110.56,112.66h-.43a1.55,1.55,0,0,0,.43,0"/><path class="cls-11" d="M104.35,115.38l-.08.05.08-.05"/><path class="cls-11" d="M104.27,115.43c-.28.1-1.17.16-1.48.3h0l-.58.14a19.7,19.7,0,0,0,2-.41"/></svg>